<svg width="24" height="24" viewBox="0 0 24 24" fill="none" xmlns="http://www.w3.org/2000/svg">
<g clip-path="url(#clip0_34047_757)">
<path d="M19.2807 0.218979C19.1401 0.0783762 18.9493 -0.000610352 18.7505 -0.000610352C18.5516 -0.000610352 18.3609 0.0783762 18.2202 0.218979L15.7497 2.68948L21.3102 8.24998L23.7807 5.78098C23.8506 5.71131 23.906 5.62855 23.9438 5.53743C23.9816 5.44631 24.001 5.34863 24.001 5.24998C24.001 5.15133 23.9816 5.05365 23.9438 4.96253C23.906 4.87141 23.8506 4.78865 23.7807 4.71898L19.2807 0.218979ZM20.2497 9.31048L14.6892 3.74998L4.93921 13.5H5.24971C5.44862 13.5 5.63939 13.579 5.78004 13.7196C5.92069 13.8603 5.99971 14.0511 5.99971 14.25V15H6.74971C6.94862 15 7.13939 15.079 7.28004 15.2196C7.42069 15.3603 7.49971 15.5511 7.49971 15.75V16.5H8.24971C8.44862 16.5 8.63939 16.579 8.78004 16.7196C8.92069 16.8603 8.99971 17.0511 8.99971 17.25V18H9.74971C9.94862 18 10.1394 18.079 10.28 18.2196C10.4207 18.3603 10.4997 18.5511 10.4997 18.75V19.0605L20.2497 9.31048ZM9.04771 20.5125C9.01615 20.4286 8.99989 20.3396 8.99971 20.25V19.5H8.24971C8.0508 19.5 7.86003 19.421 7.71938 19.2803C7.57873 19.1397 7.49971 18.9489 7.49971 18.75V18H6.74971C6.5508 18 6.36003 17.921 6.21938 17.7803C6.07873 17.6397 5.99971 17.4489 5.99971 17.25V16.5H5.24971C5.0508 16.5 4.86003 16.421 4.71938 16.2803C4.57873 16.1397 4.49971 15.9489 4.49971 15.75V15H3.74971C3.66004 14.9998 3.57114 14.9835 3.48721 14.952L3.21871 15.219C3.14723 15.291 3.0911 15.3767 3.05371 15.471L0.0537091 22.971C-0.000846891 23.1073 -0.0142021 23.2566 0.015299 23.4004C0.0448002 23.5442 0.11586 23.6762 0.21967 23.78C0.32348 23.8838 0.455474 23.9549 0.599288 23.9844C0.743103 24.0139 0.892413 24.0005 1.02871 23.946L8.52871 20.946C8.623 20.9086 8.70873 20.8525 8.78071 20.781L9.04771 20.5125Z" fill="#F5F5F6"/>
</g>
<defs>
<clipPath id="clip0_34047_757">
<rect width="24" height="24" fill="white"/>
</clipPath>
</defs>
</svg>
